<svg width="15" height="13" viewBox="0 0 15 13" fill="none" xmlns="http://www.w3.org/2000/svg">
<path fill-rule="evenodd" clip-rule="evenodd" d="M4.02037 1.72016C4.02037 2.5374 3.40516 3.1913 2.41745 3.1913H2.39933C1.44834 3.1913 0.833496 2.5374 0.833496 1.72016C0.833496 0.885625 1.46704 0.25 2.4361 0.25C3.40516 0.25 4.00199 0.885625 4.02037 1.72016ZM3.83376 4.35302V12.8644H1.001V4.35302H3.83376ZM14.0497 12.8644L14.0499 7.98422C14.0499 5.36995 12.6523 4.15318 10.7882 4.15318C9.28422 4.15318 8.61084 4.97927 8.2349 5.5588V4.35328H5.40178C5.43912 5.15193 5.40178 12.8646 5.40178 12.8646H8.2349V8.11115C8.2349 7.85677 8.25329 7.60302 8.32818 7.42089C8.53292 6.91271 8.99907 6.38656 9.78167 6.38656C10.8071 6.38656 11.2171 7.16703 11.2171 8.31078V12.8644H14.0497Z" fill="white"/>
</svg>
